<?xml version="1.0" standalone="no"?>
<!DOCTYPE svg PUBLIC "-//W3C//DTD SVG 20010904//EN"
 "http://www.w3.org/TR/2001/REC-SVG-20010904/DTD/svg10.dtd">
<svg version="1.0" xmlns="http://www.w3.org/2000/svg"
 width="700.000000pt" height="700.000000pt" viewBox="0 0 700.000000 700.000000"
 preserveAspectRatio="xMidYMid meet">
<metadata>
Created by potrace 1.14, written by Peter Selinger 2001-2017
</metadata>
<g transform="translate(0.000000,700.000000) scale(0.100000,-0.100000)"
fill="#000000" stroke="none">
<path d="M5 6569 c-5 -8 3 -374 9 -409 2 -14 7 -47 11 -75 7 -54 22 -146 30
-182 3 -13 7 -32 9 -43 36 -159 114 -376 191 -530 60 -120 111 -201 200 -321
l72 -96 -35 -59 c-133 -225 -284 -595 -346 -849 -8 -33 -19 -76 -25 -95 -5
-19 -12 -48 -15 -65 -3 -16 -14 -82 -25 -145 -12 -63 -21 -117 -21 -118 0 -4
165 6 250 14 88 9 690 12 695 4 3 -4 -11 -32 -31 -62 -52 -77 -157 -298 -193
-407 -50 -148 -83 -296 -99 -446 -15 -143 -6 -848 13 -967 2 -13 6 -50 10 -83
7 -67 28 -179 51 -270 101 -402 335 -666 717 -809 104 -39 243 -75 352 -91 17
-3 41 -7 55 -10 27 -5 119 -14 210 -20 98 -7 360 -7 565 -1 353 11 489 16 530
21 22 2 65 7 95 10 106 10 232 30 369 59 59 13 209 59 277 87 286 113 496 294
614 529 l39 77 48 -8 c211 -36 666 -28 883 16 14 3 41 7 60 10 58 8 103 16
140 25 19 5 49 12 67 15 17 3 86 21 152 40 517 149 853 419 997 803 51 134 67
235 68 417 0 168 -9 255 -41 364 l-15 53 -112 -6 c-61 -3 -122 -8 -136 -10
-14 -2 -47 -7 -75 -11 -102 -13 -121 -16 -175 -26 -30 -6 -68 -13 -85 -15 -50
-8 -290 -72 -357 -95 -143 -49 -376 -164 -386 -191 -2 -4 -8 -8 -14 -8 -17 0
-112 -84 -223 -195 -55 -55 -132 -126 -170 -156 -70 -56 -219 -159 -229 -159
-3 0 -27 -13 -53 -28 -51 -29 -188 -92 -201 -92 -5 0 -7 24 -6 53 6 113 5 546
-1 622 -5 72 -15 147 -30 230 -37 201 -137 461 -250 645 -48 80 -51 89 -33 93
22 6 621 0 683 -6 22 -3 89 -8 149 -12 l109 -7 -7 49 c-62 429 -227 899 -440
1253 -25 41 -44 80 -42 86 3 7 24 38 49 70 45 61 139 213 169 274 59 120 88
184 88 193 0 5 6 23 14 40 45 99 118 383 132 511 3 28 8 54 10 57 7 11 18 213
17 314 -1 169 6 152 -60 149 -313 -16 -536 -72 -798 -200 -227 -111 -387 -226
-556 -400 l-71 -72 -101 52 c-212 109 -470 205 -647 240 -276 55 -374 63 -522
47 -332 -38 -616 -126 -926 -286 l-144 -74 -96 97 c-118 119 -161 155 -277
237 -278 195 -576 308 -905 345 -124 13 -220 17 -225 9z"/>
</g>
</svg>
